<?xml version="1.0" standalone="no"?>
<!DOCTYPE svg PUBLIC "-//W3C//DTD SVG 20010904//EN"
 "http://www.w3.org/TR/2001/REC-SVG-20010904/DTD/svg10.dtd">
<svg version="1.0" xmlns="http://www.w3.org/2000/svg"
 width="1080.000000pt" height="1080.000000pt" viewBox="0 0 1080.000000 1080.000000"
 preserveAspectRatio="xMidYMid meet">
<metadata>
Created by potrace 1.11, written by Peter Selinger 2001-2013
</metadata>
<g transform="translate(0.000000,1080.000000) scale(0.100000,-0.100000)"
fill="#000000" stroke="none">
<path d="M3050 10784 c0 -8 -6 -14 -12 -13 -26 3 -39 -1 -33 -11 3 -5 1 -10
-5 -10 -20 0 -70 -58 -72 -84 -2 -17 -6 -22 -14 -15 -8 7 -10 2 -6 -16 3 -16
0 -25 -9 -25 -10 0 -10 -3 -1 -12 14 -14 16 -32 2 -23 -6 4 -9 -10 -8 -34 1
-22 -5 -47 -12 -56 -9 -11 -9 -15 -1 -15 7 0 9 -5 4 -12 -13 -22 -14 -51 -1
-60 10 -6 9 -8 -2 -8 -11 0 -16 -12 -17 -42 -2 -23 -9 -45 -15 -50 -10 -6 -10
-8 0 -8 7 0 11 -4 8 -9 -7 -10 -18 -78 -18 -108 0 -13 -5 -20 -10 -17 -6 4 -5
-3 1 -15 7 -12 8 -21 2 -21 -5 0 -10 -9 -10 -20 -1 -11 -1 -29 -2 -40 0 -11
-6 -20 -12 -20 -7 0 -6 -4 3 -10 10 -7 11 -13 5 -17 -6 -5 -10 -18 -9 -31 1
-12 -3 -25 -7 -28 -5 -3 -4 -15 2 -26 9 -17 9 -20 -2 -16 -11 4 -14 -6 -14
-46 1 -61 -3 -78 -18 -69 -6 3 -7 1 -3 -5 11 -19 16 -53 6 -47 -5 3 -11 1 -15
-5 -3 -5 -2 -10 2 -10 10 0 10 -41 -1 -58 -4 -7 -4 -16 -1 -22 3 -5 0 -10 -7
-10 -9 0 -9 -3 2 -10 11 -7 11 -10 2 -10 -7 0 -10 -5 -7 -10 4 -6 1 -17 -5
-25 -7 -8 -8 -15 -3 -15 5 0 10 -7 10 -15 0 -8 -4 -12 -8 -10 -3 3 -9 -4 -12
-15 -4 -14 0 -20 11 -21 14 0 15 -1 2 -7 -8 -4 -15 -16 -14 -27 0 -11 -4 -26
-9 -32 -6 -9 -5 -13 4 -13 9 0 10 -3 3 -8 -6 -4 -10 -17 -9 -29 1 -13 -2 -23
-6 -23 -4 0 -6 -16 -5 -35 2 -19 -1 -35 -6 -35 -5 0 -6 -10 -3 -21 6 -16 4
-20 -6 -13 -12 6 -12 5 -1 -8 10 -13 10 -19 -3 -31 -11 -12 -12 -16 -2 -20 9
-3 9 -7 -1 -19 -10 -13 -10 -17 0 -21 11 -4 10 -6 0 -6 -7 -1 -10 -5 -7 -11 3
-5 2 -10 -2 -10 -5 0 -7 -16 -5 -36 3 -27 1 -35 -8 -29 -9 6 -9 3 -1 -13 8
-15 8 -22 -2 -26 -9 -5 -9 -7 1 -12 8 -4 6 -12 -10 -26 -17 -14 -18 -18 -6
-14 15 4 16 1 7 -20 -5 -14 -7 -30 -3 -35 3 -5 1 -9 -4 -9 -5 0 -8 -13 -7 -30
1 -16 -1 -30 -5 -30 -3 0 -6 -10 -5 -22 1 -13 -2 -29 -8 -35 -6 -9 -5 -13 4
-13 10 0 11 -2 2 -8 -7 -4 -12 -16 -12 -27 -2 -60 -6 -85 -14 -85 -5 0 -3 -8
4 -17 11 -13 11 -15 1 -9 -10 6 -13 2 -12 -15 1 -13 1 -26 0 -29 -2 -3 -3 -19
-4 -35 -1 -17 -5 -35 -8 -40 -3 -6 -6 -23 -7 -40 -1 -40 -5 -57 -15 -74 -5 -8
-4 -16 4 -21 7 -4 8 -9 2 -11 -10 -4 -23 -75 -26 -136 0 -18 -4 -33 -7 -33 -3
0 -5 -15 -4 -34 0 -19 -3 -32 -8 -29 -4 2 -5 -7 -1 -21 3 -15 2 -26 -4 -26 -6
0 -8 -9 -5 -19 3 -10 0 -28 -6 -39 -7 -14 -8 -23 -1 -27 7 -4 7 -12 0 -24 -5
-10 -6 -21 -3 -25 3 -3 2 -6 -3 -6 -5 0 -9 -18 -9 -39 0 -22 -2 -38 -6 -36 -6
4 -10 -31 -11 -87 0 -16 -5 -28 -10 -28 -5 0 -8 -10 -7 -22 2 -13 -1 -29 -5
-37 -6 -10 -5 -12 2 -7 7 4 12 2 12 -3 0 -6 -5 -11 -10 -11 -6 0 -8 -11 -6
-24 3 -14 -2 -30 -10 -37 -10 -8 -11 -15 -4 -24 5 -6 8 -14 5 -16 -3 -4 -8
-26 -20 -89 -1 -8 3 -18 9 -22 7 -5 6 -8 -4 -8 -11 0 -15 -11 -14 -40 1 -22
-3 -40 -8 -40 -6 0 -4 -8 3 -17 12 -14 12 -15 0 -9 -10 7 -12 3 -6 -14 4 -12
3 -20 -2 -17 -5 3 -8 -16 -8 -43 0 -27 -2 -47 -6 -44 -4 2 -7 -17 -7 -42 -1
-25 -7 -53 -14 -62 -11 -13 -11 -14 2 -7 13 7 13 6 2 -7 -9 -12 -10 -18 -2
-23 8 -5 8 -11 -1 -21 -7 -8 -12 -27 -13 -43 -1 -15 -7 -35 -14 -44 -10 -12
-10 -17 -1 -23 8 -5 9 -3 4 6 -5 8 -4 11 3 6 7 -4 7 -14 -2 -31 -7 -14 -12
-41 -11 -60 1 -26 -2 -34 -12 -31 -10 4 -11 1 -5 -12 11 -22 4 -84 -11 -98 -4
-4 -1 -14 6 -22 10 -13 9 -14 -1 -8 -9 6 -11 1 -8 -18 3 -14 1 -26 -3 -26 -4
0 -7 -10 -6 -22 1 -13 -3 -29 -9 -37 -9 -12 -8 -13 4 -6 12 6 12 5 3 -5 -6 -7
-9 -19 -6 -28 4 -8 2 -13 -3 -10 -8 6 -13 -29 -15 -110 0 -18 -4 -30 -9 -27
-5 3 -7 -4 -5 -16 2 -12 0 -31 -6 -41 -9 -16 -8 -19 3 -12 10 6 11 5 1 -7 -10
-12 -10 -18 0 -29 9 -10 9 -11 0 -6 -9 5 -13 -2 -13 -23 0 -40 0 -43 -11 -62
-5 -10 -3 -21 4 -29 9 -10 9 -11 0 -6 -8 5 -13 1 -13 -9 0 -10 5 -14 13 -10 6
4 5 1 -4 -7 -8 -7 -15 -25 -14 -40 1 -16 -1 -28 -5 -28 -3 0 -5 -13 -4 -30 1
-16 -1 -30 -4 -30 -4 0 -7 -20 -7 -44 0 -24 -3 -42 -8 -39 -5 3 -6 -5 -2 -17
4 -14 3 -20 -2 -17 -6 4 -8 -4 -6 -17 3 -13 0 -34 -7 -46 -10 -18 -10 -21 2
-14 11 6 11 5 -1 -9 -11 -14 -11 -17 0 -17 9 0 10 -3 4 -8 -11 -8 -16 -23 -21
-67 -2 -16 -6 -48 -9 -70 -3 -22 -6 -47 -7 -55 -1 -8 -5 -18 -11 -21 -5 -4 -4
-15 3 -29 7 -13 8 -20 2 -16 -6 4 -11 -3 -11 -16 0 -13 -1 -33 -1 -45 0 -13
-5 -23 -11 -23 -8 0 -8 -4 0 -13 6 -8 8 -17 4 -21 -4 -3 -8 -12 -9 -19 -1 -7
-3 -23 -5 -37 -2 -14 -8 -28 -14 -32 -6 -5 -5 -8 4 -8 11 0 11 -3 1 -15 -10
-12 -10 -15 1 -15 12 0 12 -2 0 -9 -8 -5 -11 -16 -8 -25 4 -9 3 -16 -2 -16 -5
0 -7 -11 -6 -25 2 -14 -1 -27 -6 -31 -5 -3 -9 -10 -9 -15 0 -6 5 -7 12 -3 7 5
8 3 2 -7 -9 -15 -12 -29 -16 -66 -1 -13 -7 -23 -13 -23 -5 0 -4 -4 4 -9 9 -6
10 -11 2 -15 -6 -4 -11 -12 -11 -17 0 -6 6 -7 12 -3 10 6 10 5 1 -7 -7 -9 -15
-42 -17 -75 -3 -32 -10 -60 -16 -62 -8 -3 -7 -8 1 -18 9 -11 9 -14 0 -14 -7 0
-9 -4 -6 -10 3 -5 1 -19 -6 -31 -9 -17 -8 -20 3 -13 10 6 11 5 2 -7 -6 -8 -10
-22 -9 -31 2 -10 0 -18 -5 -18 -4 0 -6 -9 -3 -20 3 -11 -1 -28 -8 -37 -12 -15
-12 -16 1 -8 13 8 13 7 1 -8 -9 -12 -10 -17 -2 -17 7 0 9 -5 6 -10 -4 -6 -12
-7 -18 -3 -7 4 -6 0 2 -10 11 -14 11 -17 0 -17 -11 0 -11 -2 1 -10 11 -7 11
-10 2 -10 -7 0 -10 -5 -7 -10 4 -6 1 -17 -5 -25 -10 -11 -10 -15 -1 -15 7 0 9
-5 4 -12 -8 -15 -12 -30 -15 -73 -1 -16 -4 -34 -7 -40 -3 -5 -7 -30 -9 -55 -1
-24 -8 -50 -14 -57 -8 -10 -7 -13 3 -13 11 0 11 -2 -1 -10 -12 -8 -12 -10 -1
-10 10 0 11 -3 3 -13 -6 -7 -12 -30 -14 -50 -1 -20 -7 -37 -13 -37 -6 0 -7 -3
0 -8 12 -9 19 -36 7 -28 -5 3 -10 -7 -10 -22 -2 -38 -7 -60 -15 -68 -3 -4 -2
-15 4 -25 7 -14 6 -19 -2 -19 -7 0 -10 -12 -7 -30 3 -17 1 -30 -3 -30 -3 0 -9
-9 -12 -20 -3 -12 -1 -18 5 -14 7 4 7 0 0 -12 -5 -11 -7 -25 -5 -31 3 -7 -1
-13 -9 -13 -10 0 -9 -3 2 -10 11 -7 11 -10 2 -10 -7 0 -10 -4 -7 -10 3 -5 1
-19 -6 -31 -9 -17 -8 -20 3 -13 11 6 11 5 -1 -9 -11 -14 -11 -17 0 -17 8 0 6
-6 -7 -16 -10 -8 -13 -13 -6 -9 6 3 12 1 12 -4 0 -6 -4 -11 -8 -11 -4 0 -7
-15 -7 -32 1 -18 -4 -36 -9 -40 -7 -6 -6 -11 4 -18 8 -5 10 -10 4 -10 -6 0
-11 -6 -12 -12 -4 -51 -9 -75 -16 -87 -6 -10 -5 -12 2 -7 8 5 10 2 6 -8 -3 -9
-9 -14 -13 -11 -4 2 -5 -9 -3 -26 2 -16 -1 -35 -7 -43 -9 -11 -9 -15 1 -19 10
-4 10 -8 -2 -17 -12 -9 -12 -13 -2 -17 9 -3 10 -9 3 -17 -5 -6 -11 -23 -13
-36 -2 -14 -7 -30 -11 -37 -4 -6 -1 -14 5 -16 9 -4 10 -8 2 -14 -6 -4 -11 -15
-11 -23 -1 -29 -11 -85 -19 -104 -6 -15 -4 -17 6 -11 10 6 11 4 4 -6 -4 -8 -9
-18 -11 -24 -10 -47 -13 -56 -19 -67 -5 -7 -3 -8 7 -3 12 8 12 6 0 -8 -11 -14
-11 -17 0 -17 9 0 10 -3 4 -8 -5 -4 -12 -18 -13 -32 -2 -14 -5 -29 -5 -35 -1
-5 -6 -13 -12 -17 -6 -5 -5 -8 4 -8 9 0 10 -4 4 -13 -5 -6 -10 -27 -11 -46 -2
-18 -7 -42 -13 -53 -9 -16 -8 -19 3 -12 11 6 11 5 -1 -9 -11 -14 -11 -17 0
-17 10 0 10 -3 1 -12 -7 -7 -12 -24 -12 -38 0 -14 -6 -32 -12 -39 -11 -11 -10
-12 1 -6 11 6 13 4 6 -11 -4 -10 -7 -27 -7 -36 0 -10 -4 -18 -10 -18 -7 0 -7
-5 1 -14 9 -10 8 -16 -4 -26 -12 -10 -13 -16 -3 -28 10 -13 10 -14 1 -8 -7 4
-13 2 -13 -3 0 -6 5 -11 11 -11 8 0 9 -4 0 -13 -6 -8 -8 -17 -4 -20 3 -4 1 -7
-6 -7 -8 0 -11 -6 -7 -16 3 -8 2 -12 -4 -9 -6 3 -10 -1 -10 -10 0 -19 23 -45
40 -45 6 0 20 -9 32 -20 12 -11 30 -20 40 -20 10 0 18 -5 18 -11 0 -6 7 -8 16
-5 11 4 15 2 11 -7 -3 -8 3 -14 15 -14 11 -1 28 -9 37 -17 10 -9 21 -13 24 -9
4 3 7 1 7 -5 0 -6 10 -14 23 -18 12 -4 38 -17 58 -30 20 -13 40 -20 43 -17 3
4 6 -2 6 -12 0 -15 2 -16 18 -4 9 7 14 10 10 5 -8 -10 14 -36 25 -29 4 2 14
-3 23 -11 9 -9 20 -13 26 -10 7 4 8 2 4 -4 -6 -11 5 -16 26 -13 4 0 16 -11 27
-24 11 -15 21 -20 23 -14 3 8 11 5 23 -7 10 -11 21 -19 24 -19 3 -1 16 -6 27
-13 12 -6 24 -8 28 -5 3 3 6 -2 6 -12 0 -15 2 -15 16 -5 8 8 14 9 13 4 -4 -21
2 -35 12 -29 6 4 17 -1 25 -11 9 -11 12 -12 8 -4 -6 11 -2 10 13 -3 11 -9 23
-14 26 -10 4 3 7 1 7 -5 0 -7 7 -12 15 -12 7 0 19 -8 24 -17 6 -10 11 -15 11
-11 0 4 12 1 27 -7 15 -8 31 -11 36 -8 6 3 7 1 3 -5 -4 -7 -2 -12 4 -12 6 0 9
-4 6 -9 -4 -5 3 -7 14 -4 14 4 20 0 20 -11 0 -19 16 -21 23 -3 3 7 6 4 6 -7 1
-13 6 -17 21 -13 10 3 18 2 17 -2 -1 -3 1 -6 5 -6 4 0 14 -9 22 -20 8 -11 18
-17 22 -13 4 4 15 -2 25 -14 11 -11 19 -18 19 -14 0 4 13 -1 29 -10 17 -10 27
-22 24 -28 -4 -6 1 -5 10 3 15 12 17 11 17 -2 0 -11 7 -15 20 -12 11 2 18 0
15 -6 -4 -5 -1 -9 5 -9 6 0 8 -5 4 -12 -5 -9 -2 -9 9 1 15 12 17 11 17 -3 0
-9 7 -16 15 -16 8 0 17 0 20 0 3 0 14 -9 25 -20 12 -12 26 -17 36 -13 12 4 15
3 10 -5 -4 -7 -1 -12 8 -12 9 0 16 -4 16 -10 0 -5 9 -10 20 -10 11 0 20 -5 20
-11 0 -5 4 -7 10 -4 5 3 10 1 10 -5 0 -7 7 -9 16 -6 8 3 13 2 11 -2 -8 -13 18
-29 45 -28 22 1 25 -1 15 -13 -9 -12 -9 -13 0 -7 8 4 13 2 13 -4 0 -6 4 -9 9
-6 5 3 14 -1 21 -9 7 -8 16 -13 20 -10 4 3 11 -2 14 -11 3 -8 10 -12 16 -9 5
3 10 1 10 -6 0 -7 3 -9 7 -6 3 4 12 2 20 -4 7 -6 13 -8 13 -4 0 4 9 -3 21 -16
11 -13 18 -17 14 -9 -4 9 -1 8 8 -3 11 -14 16 -15 20 -5 4 9 6 8 6 -3 1 -9 9
-23 18 -30 14 -12 16 -12 9 0 -6 9 -5 12 5 9 8 -3 13 -11 11 -17 -1 -7 2 -10
8 -6 6 4 28 -6 48 -21 25 -19 32 -22 22 -9 -14 19 -14 19 6 2 11 -9 24 -14 28
-10 4 5 6 3 4 -2 -2 -6 1 -11 5 -12 4 -1 15 -9 24 -18 8 -9 22 -14 30 -11 8 3
11 1 8 -4 -3 -6 3 -10 15 -10 12 0 18 -4 15 -10 -3 -5 1 -10 10 -10 10 0 13
-5 9 -12 -5 -8 0 -7 11 2 11 9 16 10 11 3 -4 -8 -2 -13 8 -13 8 0 16 -5 18
-10 2 -6 13 -12 25 -13 12 0 19 -5 17 -9 -3 -4 4 -8 16 -8 12 0 18 -4 15 -10
-5 -9 15 -15 38 -11 4 0 7 -6 7 -14 0 -9 6 -12 15 -9 8 4 15 1 15 -5 0 -6 6
-11 14 -11 8 0 16 -7 19 -15 4 -8 15 -12 27 -10 11 2 18 0 15 -6 -4 -5 1 -9
10 -9 9 0 26 -10 37 -22 11 -13 17 -17 13 -11 -10 21 9 15 23 -7 7 -11 21 -20
32 -20 11 0 20 -4 20 -10 0 -5 9 -10 19 -10 10 0 21 -6 24 -14 3 -8 19 -17 36
-21 17 -4 31 -11 31 -16 0 -5 7 -9 15 -9 8 0 15 -4 15 -10 0 -5 9 -10 20 -10
11 0 20 -3 20 -7 0 -5 23 -19 50 -32 28 -14 50 -29 50 -34 0 -4 4 -6 9 -2 5 3
12 1 16 -5 4 -6 11 -7 17 -4 6 4 8 2 4 -4 -3 -6 -2 -13 4 -17 5 -3 10 0 10 7
0 8 5 6 11 -5 6 -9 14 -15 20 -12 5 4 9 1 9 -5 0 -6 4 -8 10 -5 6 3 10 -1 10
-9 0 -8 6 -13 13 -10 7 2 22 -4 34 -15 15 -14 23 -17 26 -8 3 7 6 5 6 -4 1 -9
8 -20 17 -23 10 -4 13 -2 9 7 -4 6 0 4 8 -5 8 -10 17 -15 20 -11 4 3 7 1 7 -5
0 -7 6 -12 13 -12 6 0 23 -9 37 -20 14 -11 36 -20 50 -20 18 0 21 -3 12 -9
-10 -6 -8 -10 10 -16 12 -4 26 -7 30 -6 5 1 8 -4 8 -10 0 -5 4 -7 10 -4 5 3
10 2 10 -3 0 -5 9 -12 21 -15 12 -3 18 -10 15 -15 -3 -6 2 -8 14 -5 12 3 20 0
20 -7 0 -7 7 -10 15 -6 9 3 15 0 15 -9 0 -8 9 -15 20 -15 11 0 20 -4 20 -9 0
-5 7 -12 16 -15 10 -4 13 -2 8 7 -4 6 3 2 15 -10 20 -21 34 -27 54 -24 4 0 7
-6 7 -14 0 -10 7 -15 18 -13 10 2 16 -2 14 -10 -1 -7 3 -12 10 -11 24 3 39 -1
34 -9 -2 -4 5 -9 16 -9 12 -1 25 -7 29 -14 4 -7 14 -9 23 -6 9 4 16 2 16 -4 0
-6 4 -7 10 -4 6 3 10 1 10 -6 0 -6 8 -9 20 -6 11 3 26 0 33 -7 7 -7 36 -13 66
-13 34 -1 57 -6 62 -14 7 -12 9 -12 9 0 0 10 3 11 14 2 10 -8 16 -9 21 -1 3 5
11 10 16 10 6 0 7 -6 3 -13 -5 -8 -2 -7 10 2 9 8 35 14 58 13 24 -1 45 3 50
10 6 10 8 10 8 0 0 -10 5 -10 21 2 12 8 27 12 34 10 7 -3 16 0 20 5 3 6 11 9
16 6 5 -4 9 -2 9 4 0 5 9 8 20 6 11 -2 18 0 15 6 -4 5 3 9 15 9 11 0 23 6 26
14 3 8 12 12 20 9 7 -3 16 2 20 10 3 10 12 13 22 10 11 -5 14 -2 10 8 -4 11 0
15 16 15 11 -1 20 4 19 10 -1 8 6 10 19 6 16 -4 19 -2 13 8 -6 10 -4 12 8 7
10 -4 22 1 30 13 8 11 16 17 20 14 9 -9 48 22 39 31 -4 5 -2 6 3 3 14 -8 57
10 51 21 -3 4 4 8 17 7 12 0 21 4 20 11 -2 7 4 10 12 7 8 -4 17 1 21 9 3 9 12
13 19 11 7 -3 16 0 20 5 3 6 11 8 17 5 7 -4 8 -2 4 4 -7 12 27 35 38 25 3 -3
6 -1 6 6 0 7 5 9 10 6 6 -3 10 -1 10 5 0 6 5 8 10 5 6 -3 10 -2 10 4 0 5 16
15 35 22 20 8 34 18 31 25 -3 7 3 10 15 7 11 -3 19 0 19 8 0 7 3 10 6 6 4 -3
14 2 23 11 9 10 12 11 6 3 -9 -12 -7 -12 13 -2 12 6 22 16 22 22 0 6 5 7 10 4
6 -3 10 -1 10 5 0 6 5 8 10 5 6 -3 13 0 16 9 3 8 12 12 20 9 7 -3 17 2 20 11
3 9 10 13 15 10 5 -3 9 0 9 6 0 6 4 9 9 6 5 -3 14 1 21 10 7 8 20 12 29 9 8
-3 12 -3 9 1 -4 3 -1 12 5 19 9 10 15 10 26 1 12 -8 13 -8 7 1 -4 7 -3 13 3
13 6 0 20 10 32 23 12 12 19 16 15 10 -4 -7 -3 -13 2 -13 6 0 13 7 16 16 3 8
10 13 15 10 5 -3 14 1 21 9 7 8 16 13 20 10 4 -3 11 2 14 11 3 9 12 14 20 11
7 -3 19 3 26 13 8 11 17 17 21 14 4 -2 14 2 22 10 8 8 17 12 21 9 3 -4 6 -2 6
3 0 6 16 16 35 24 19 8 35 18 35 23 0 5 7 6 16 3 11 -4 15 -2 11 8 -4 10 0 14
14 11 10 -2 19 1 19 6 0 6 4 8 9 5 5 -3 16 5 25 19 9 14 22 22 30 19 8 -3 17
0 21 5 3 6 11 9 16 6 5 -4 12 1 15 9 3 9 12 16 20 16 8 0 14 5 14 11 0 5 5 7
10 4 6 -3 10 -1 10 5 0 6 4 8 10 5 13 -8 52 19 42 30 -4 4 1 5 11 2 11 -4 20
-1 23 8 4 8 15 15 26 15 10 0 16 4 13 10 -3 6 1 7 9 4 10 -4 16 -1 16 9 0 11
6 13 22 9 13 -3 19 -1 15 5 -4 6 13 18 38 28 25 9 45 21 45 26 0 6 5 7 10 4 6
-3 10 -1 10 6 0 6 8 9 19 6 15 -3 18 -1 14 11 -4 10 -2 13 5 8 6 -3 13 -2 17
4 4 6 10 8 15 5 4 -3 10 2 14 10 3 8 12 15 21 15 8 0 15 5 15 12 0 6 3 8 6 5
6 -6 60 19 74 33 3 3 19 12 35 20 17 8 32 17 35 21 3 3 20 11 37 18 18 7 30
17 28 22 -3 4 4 6 16 4 15 -3 19 0 15 10 -3 9 1 12 15 10 12 -2 19 2 19 11 0
8 5 12 11 9 6 -4 17 1 25 11 9 11 12 12 8 5 -5 -9 4 -6 23 7 17 12 33 19 37
15 3 -3 6 -1 6 5 0 7 7 12 15 12 8 0 15 5 15 10 0 6 7 10 15 10 7 0 19 8 24
18 6 10 11 12 11 4 0 -7 5 -10 10 -7 6 4 7 12 4 18 -4 7 -3 9 1 4 5 -4 17 1
28 10 15 13 18 14 12 3 -5 -9 0 -8 13 4 12 11 22 15 22 10 0 -5 7 2 16 15 11
15 23 21 35 18 11 -3 17 -2 14 3 -6 10 23 22 35 15 5 -3 7 4 5 16 -3 17 -2 19
10 9 12 -10 16 -9 21 4 3 9 10 13 15 10 5 -3 9 0 9 6 0 7 7 10 15 6 10 -3 15
1 16 12 0 11 2 12 6 4 3 -9 10 -7 24 9 13 15 19 18 20 8 0 -8 4 -4 9 8 6 14
15 21 23 17 8 -3 17 2 21 11 3 9 10 14 15 10 6 -3 14 3 20 12 6 11 11 13 11 5
0 -7 5 -10 11 -7 6 4 8 14 4 22 -4 13 -3 14 10 3 12 -10 16 -9 21 4 3 9 10 14
14 11 4 -3 24 6 44 20 20 14 44 25 52 25 8 0 12 4 9 10 -3 6 1 10 9 10 9 0 16
4 16 10 0 5 7 7 15 4 8 -4 17 1 21 10 3 9 10 13 15 10 5 -3 9 0 9 7 0 7 3 9 7
6 3 -4 12 1 20 11 8 9 12 11 8 5 -4 -9 -1 -11 9 -7 9 3 13 11 10 16 -4 6 2 7
16 3 14 -4 20 -3 16 3 -3 5 8 15 24 22 17 7 30 17 30 22 0 5 4 7 10 3 5 -3 18
3 30 15 11 11 22 20 25 20 3 0 12 0 21 0 8 0 13 4 9 9 -3 5 -1 12 5 16 5 3 10
0 10 -7 1 -8 6 -6 15 6 8 11 15 16 15 10 0 -5 6 -2 13 6 7 8 19 15 27 15 8 0
14 5 13 11 -1 7 5 11 15 10 9 0 16 4 15 11 -2 7 6 10 17 8 11 -2 20 0 20 6 0
5 9 9 21 9 11 0 17 4 14 10 -3 6 3 10 14 10 17 0 21 6 21 30 0 17 -4 30 -10
30 -5 0 -10 12 -10 26 0 17 -4 23 -13 18 -9 -6 -9 -4 1 8 10 13 10 17 0 21
-10 4 -10 6 1 6 11 1 11 4 0 18 -12 15 -12 16 1 8 12 -6 13 -5 3 6 -7 7 -13
26 -13 41 0 15 -4 28 -10 28 -6 0 -6 9 0 25 6 15 6 25 0 25 -5 0 -9 8 -9 18
-1 40 -5 52 -15 52 -7 0 -7 3 -1 8 13 9 16 42 4 42 -5 0 -5 7 -2 17 4 9 2 14
-3 10 -7 -4 -9 6 -6 25 3 23 1 29 -8 23 -9 -6 -9 -3 -1 14 9 16 9 21 -1 21 -9
0 -9 3 2 10 8 5 10 10 4 10 -6 0 -11 12 -11 26 0 15 -7 30 -14 35 -8 5 -9 9
-3 9 6 0 11 7 11 15 0 8 -5 15 -11 15 -6 0 -4 5 4 10 9 6 10 10 3 10 -6 0 -12
9 -12 20 -1 11 -1 29 -2 40 0 11 -5 20 -12 20 -8 0 -8 3 1 12 15 15 16 32 2
23 -5 -3 -10 1 -10 10 0 9 5 13 11 10 12 -8 -11 37 -25 46 -4 4 -3 10 3 14 9
5 9 10 1 20 -7 9 -8 15 -1 20 7 4 7 12 1 25 -6 11 -14 29 -19 39 -6 10 -7 22
-3 25 9 10 11 36 2 36 -4 0 -6 13 -5 30 1 16 -1 28 -5 25 -13 -8 -19 32 -7 44
8 8 8 11 0 11 -13 0 -12 18 1 39 6 10 5 12 -2 7 -11 -7 -17 18 -13 53 2 7 -2
10 -9 6 -9 -6 -9 -2 -1 12 6 11 8 23 5 25 -5 6 -15 45 -16 66 -1 6 -6 12 -11
12 -5 0 -4 7 3 15 10 12 10 18 0 30 -7 8 -10 21 -7 30 4 8 -1 21 -9 30 -9 8
-11 15 -6 15 10 0 10 30 -1 47 -4 6 -8 29 -9 52 -1 26 -5 38 -12 34 -6 -4 -5
1 3 11 11 13 11 20 3 28 -7 7 -12 23 -12 36 0 16 -4 21 -12 16 -10 -6 -10 -4
-3 7 12 16 13 39 2 57 -5 7 -3 12 5 12 9 0 9 3 -2 10 -8 5 -11 10 -6 10 5 0 4
6 -3 13 -6 8 -9 23 -6 35 2 13 -1 22 -8 22 -8 0 -8 3 2 9 7 5 9 11 4 14 -9 6
-15 41 -15 95 0 12 -3 22 -7 22 -4 0 -7 10 -8 23 -1 23 -10 72 -13 72 -2 0 -4
23 -5 50 -2 28 -4 52 -5 55 -1 3 -2 8 -1 13 0 4 -4 7 -10 7 -8 0 -8 5 1 15 7
8 8 15 3 15 -5 0 -9 15 -8 34 0 19 -3 32 -7 30 -4 -3 -8 2 -8 11 0 10 5 14 13
10 6 -4 4 0 -6 8 -12 10 -14 17 -7 22 5 3 7 12 3 18 -4 7 -9 18 -10 24 -2 7
-4 19 -6 25 -1 7 -7 19 -11 27 -6 10 -5 12 2 7 7 -4 12 -1 12 8 0 8 -4 18 -10
21 -15 9 -12 27 3 19 6 -4 3 3 -8 16 -13 15 -15 21 -5 16 8 -4 6 0 -4 8 -11 9
-15 16 -9 16 13 0 12 18 -1 39 -7 10 -6 12 4 6 9 -5 11 -4 6 3 -10 16 -17 50
-19 92 -2 19 -6 40 -10 46 -3 6 -8 26 -9 45 -1 19 -7 37 -13 41 -6 5 -6 8 2 8
9 0 10 7 3 24 -5 13 -6 27 -3 30 3 3 -2 8 -11 12 -15 6 -15 7 1 21 10 8 13 12
7 9 -14 -7 -25 42 -12 50 5 3 1 15 -9 27 -12 14 -13 18 -3 12 13 -7 13 -6 2 7
-10 13 -10 18 -1 24 9 5 9 10 -2 18 -17 14 -21 46 -5 46 7 0 7 3 -1 8 -7 4
-14 17 -16 27 -1 11 -7 26 -11 34 -6 9 -5 12 2 7 7 -4 10 1 9 14 -1 11 -4 20
-7 20 -3 0 -7 12 -8 27 -1 15 -7 30 -13 34 -8 4 -7 8 2 11 12 4 11 8 -1 23 -9
11 -10 16 -2 11 6 -4 12 -2 12 3 0 6 -4 11 -9 11 -4 0 -8 8 -8 18 0 39 -3 53
-12 48 -11 -7 -8 21 4 31 4 4 5 2 0 -6 -6 -10 -4 -12 4 -7 9 6 9 11 1 21 -6 8
-13 26 -15 42 -2 15 -7 44 -10 63 -4 19 -8 44 -10 55 -1 11 -5 28 -10 38 -4
10 -5 21 -2 24 4 3 2 15 -4 26 -8 14 -8 18 0 13 13 -9 -4 40 -22 63 -10 12 -9
13 1 7 10 -6 12 -1 8 21 -2 15 -5 29 -6 31 -2 1 -4 11 -5 22 -1 11 -4 23 -5
28 -1 4 -1 15 0 26 1 12 -2 16 -11 11 -8 -6 -10 -4 -3 6 13 21 14 39 2 39 -6
0 -8 6 -5 14 3 7 0 19 -6 25 -6 6 -7 11 -3 11 5 0 3 6 -3 14 -8 10 -9 16 -1
21 7 4 7 12 0 26 -8 14 -7 19 2 19 9 0 9 3 -2 10 -8 5 -11 10 -6 10 5 0 1 10
-10 22 -10 12 -14 18 -7 15 6 -4 14 -3 18 3 3 5 2 10 -4 10 -5 0 -8 9 -6 20 2
11 1 20 -3 20 -4 0 -8 15 -9 33 -4 44 -7 60 -17 76 -7 10 -6 12 4 6 9 -5 11
-4 6 3 -4 7 -9 20 -11 29 -2 10 -7 27 -11 37 -6 15 -4 17 7 11 10 -7 10 -3 -2
16 -12 18 -14 30 -7 42 6 11 5 17 -2 17 -6 0 -10 15 -8 36 1 19 -2 38 -7 42
-6 4 -10 16 -9 27 0 11 -5 26 -10 34 -9 12 -8 13 2 7 11 -7 12 -4 4 10 -5 11
-7 25 -5 32 3 6 1 12 -4 12 -4 0 -8 20 -8 44 0 24 -3 42 -8 39 -5 -3 -6 5 -2
17 5 17 4 21 -6 15 -11 -6 -12 -5 -1 6 13 14 17 33 4 26 -4 -3 -8 7 -9 21 -3
33 -10 77 -12 77 -1 0 -4 20 -6 44 -2 23 -10 50 -17 59 -10 12 -10 14 0 8 9
-5 11 -1 8 16 -3 13 -5 23 -6 23 -2 0 -12 69 -13 93 -1 12 -4 22 -8 22 -4 0
-5 9 -2 20 3 11 1 20 -3 20 -5 0 -8 18 -8 40 1 22 -1 40 -5 40 -4 0 -7 8 -8
18 -1 9 -3 37 -5 62 -2 25 -7 51 -11 58 -5 6 -6 12 -2 12 3 0 1 9 -5 20 -8 15
-8 20 2 20 8 1 6 6 -5 14 -14 11 -15 15 -5 19 8 4 9 8 3 14 -9 8 -13 32 -15
96 -1 16 -6 25 -12 21 -6 -4 -6 1 1 14 8 15 8 23 0 28 -6 3 -9 19 -7 35 3 16
-1 34 -8 40 -6 5 -10 19 -7 29 3 11 0 26 -6 34 -9 11 -9 15 1 19 10 4 10 6 1
6 -7 1 -13 6 -13 12 0 5 5 7 12 3 6 -4 4 3 -5 16 -12 18 -14 27 -5 37 8 9 7
13 -2 13 -6 0 -10 8 -8 18 2 9 -3 23 -12 30 -8 8 -10 11 -4 8 7 -3 15 1 18 10
4 10 2 13 -6 8 -7 -5 -9 0 -6 14 4 12 3 22 -1 22 -4 0 -8 15 -9 33 -2 17 -7
34 -12 35 -6 2 -10 10 -10 18 0 8 -4 14 -9 14 -5 0 -12 11 -15 25 -4 14 -12
25 -18 25 -9 0 -9 -3 0 -12 7 -7 12 -17 12 -22 0 -6 -7 0 -16 12 -8 12 -12 28
-8 35 5 7 0 6 -11 -3 -10 -8 -16 -10 -12 -4 7 11 -11 24 -42 30 -8 1 -18 9
-22 16 -7 10 -9 10 -9 -2 0 -9 -3 -11 -8 -5 -8 12 -82 14 -82 2 0 -4 -4 -5
-10 -2 -6 3 -10 2 -10 -4 0 -6 -7 -8 -15 -5 -8 4 -17 -1 -21 -10 -5 -14 -9
-14 -22 -4 -12 10 -14 10 -8 1 4 -8 1 -13 -8 -13 -10 0 -13 -6 -9 -17 4 -11 3
-14 -5 -9 -7 4 -12 2 -12 -4 0 -6 -4 -8 -10 -5 -5 3 -10 0 -10 -8 0 -8 -11
-22 -24 -33 -14 -10 -22 -22 -19 -28 4 -5 -1 -7 -10 -3 -10 3 -17 2 -17 -4 0
-5 -13 -23 -29 -38 -16 -16 -27 -32 -23 -37 4 -4 -1 -4 -10 -1 -12 4 -18 1
-18 -9 0 -8 -4 -12 -10 -9 -9 5 -14 -7 -12 -27 1 -3 -5 -9 -14 -12 -10 -4 -13
-1 -9 7 4 6 0 3 -9 -7 -8 -10 -13 -23 -10 -27 3 -5 0 -9 -5 -9 -14 0 -91 -77
-91 -91 0 -5 -4 -8 -8 -5 -12 7 -52 -40 -44 -50 4 -4 -1 -4 -10 -1 -12 4 -18
1 -18 -9 0 -8 -4 -12 -10 -9 -9 6 -14 -8 -11 -27 0 -5 -5 -8 -13 -8 -8 0 -17
-7 -20 -16 -3 -8 -10 -12 -16 -9 -5 3 -10 -1 -10 -10 0 -9 -4 -13 -10 -10 -5
3 -10 -3 -10 -15 0 -12 -4 -19 -9 -15 -6 3 -15 -3 -20 -14 -6 -11 -20 -22 -31
-26 -11 -3 -19 -9 -19 -13 3 -17 -2 -32 -9 -29 -9 3 -58 -46 -55 -55 2 -5 -6
-8 -18 -8 -11 0 -17 -4 -14 -10 3 -5 -1 -10 -10 -10 -9 0 -14 -4 -11 -9 3 -5
-5 -17 -19 -27 -13 -10 -21 -22 -18 -28 4 -5 -1 -7 -10 -3 -11 4 -17 1 -17 -9
0 -8 -4 -12 -10 -9 -5 3 -10 -3 -10 -14 0 -12 -3 -20 -8 -18 -4 1 -18 -9 -32
-23 -14 -14 -24 -28 -23 -32 3 -7 -12 -12 -29 -9 -4 0 -10 -8 -13 -19 -4 -11
-15 -25 -26 -31 -11 -5 -17 -14 -14 -20 4 -5 -4 -9 -16 -9 -12 0 -19 -3 -16
-7 4 -3 -2 -13 -13 -20 -11 -8 -18 -19 -15 -24 4 -5 1 -9 -4 -9 -14 0 -57 -43
-54 -52 2 -5 -6 -8 -18 -8 -11 0 -17 -4 -14 -10 3 -5 1 -10 -5 -10 -6 0 -8 -4
-5 -10 6 -9 -8 -14 -27 -11 -5 0 -8 -3 -8 -8 0 -15 -46 -61 -53 -54 -6 6 -11
-12 -8 -29 0 -5 -5 -7 -12 -5 -6 1 -11 -2 -10 -8 1 -5 -10 -10 -23 -10 -13 0
-24 6 -24 13 0 8 -5 10 -12 6 -8 -5 -9 -2 -5 9 3 10 3 17 -1 17 -4 0 -13 9
-20 21 -8 12 -9 18 -3 15 7 -4 8 -1 5 8 -3 9 -11 13 -17 9 -6 -4 -8 0 -4 10 4
10 0 20 -11 26 -9 6 -14 11 -9 11 4 0 1 10 -8 23 -8 13 -12 27 -8 30 3 4 -1 7
-11 7 -9 0 -14 5 -11 10 4 6 1 18 -6 26 -7 9 -14 23 -16 32 -1 9 -7 18 -13 20
-5 2 -8 8 -4 13 3 5 -1 12 -10 15 -8 3 -13 14 -11 25 3 12 -2 19 -12 19 -9 0
-13 6 -10 14 3 8 -1 17 -9 20 -9 3 -13 10 -10 15 4 5 -1 16 -9 24 -8 9 -15 23
-15 31 0 9 -5 16 -11 16 -5 0 -8 4 -4 9 3 5 0 13 -5 16 -12 7 -34 55 -32 68 1
4 -2 7 -7 7 -9 0 -35 58 -32 73 0 4 -7 7 -16 7 -9 0 -13 3 -10 7 4 3 0 17 -9
31 -8 13 -13 26 -10 29 3 3 -4 14 -15 24 -12 10 -18 23 -14 28 3 6 1 11 -4 11
-6 0 -11 6 -11 14 0 8 -6 17 -12 19 -10 4 -10 8 1 15 11 8 9 11 -8 17 -12 3
-21 15 -21 26 0 10 -5 19 -11 19 -5 0 -8 4 -5 9 4 5 2 11 -4 13 -6 2 -12 14
-15 28 -2 14 -13 32 -22 40 -10 8 -18 21 -19 28 -2 29 -5 33 -16 26 -8 -5 -9
-2 -5 9 3 10 2 17 -4 17 -6 0 -8 4 -4 9 3 5 1 12 -5 16 -5 3 -10 13 -10 22 0
9 -10 24 -22 34 -11 11 -16 19 -10 19 6 0 0 12 -14 26 -17 17 -24 32 -21 46 3
11 3 17 0 14 -3 -3 -12 2 -19 12 -9 12 -9 21 -2 30 8 10 6 11 -8 6 -10 -4 -16
-4 -12 1 4 4 0 14 -8 22 -8 8 -12 19 -9 24 4 5 1 9 -4 9 -6 0 -11 9 -11 21 0
11 -4 17 -10 14 -6 -4 -10 5 -10 19 0 14 -4 26 -9 26 -5 0 -14 14 -21 30 -7
17 -16 30 -21 30 -5 0 -6 6 -3 14 3 8 0 17 -5 21 -6 3 -8 11 -5 17 4 7 2 8 -4
4 -8 -5 -12 0 -12 12 0 11 -7 25 -15 32 -9 7 -14 19 -11 27 3 8 1 11 -4 8 -9
-6 -14 7 -11 27 0 4 -8 12 -20 18 -17 10 -18 14 -7 28 10 12 10 14 1 8 -8 -4
-13 -1 -13 8 0 9 -4 16 -10 16 -5 0 -10 9 -10 20 0 11 -4 20 -8 20 -8 0 -23
26 -33 55 -5 17 -24 33 -31 28 -8 -4 -12 13 -9 31 1 5 -6 3 -15 -5 -10 -8 -15
-9 -12 -4 3 6 0 16 -8 23 -11 10 -14 10 -14 0 0 -8 -5 -6 -11 5 -6 9 -14 15
-20 12 -5 -4 -9 -1 -9 5 0 6 -4 8 -10 5 -5 -3 -19 -1 -30 5 -15 8 -20 8 -20
-2 0 -10 -2 -10 -9 1 -6 9 -11 10 -15 2 -4 -6 -11 -9 -16 -6 -13 8 -100 -33
-106 -50 -4 -8 -11 -15 -18 -15 -14 0 -48 -55 -39 -64 3 -3 1 -6 -5 -6 -7 0
-22 -22 -34 -50 -12 -27 -26 -50 -30 -50 -5 0 -7 -4 -3 -9 3 -5 -1 -15 -8 -23
-8 -7 -13 -23 -12 -35 1 -18 -1 -20 -12 -11 -11 9 -13 8 -11 -3 2 -8 -2 -13
-8 -12 -7 1 -10 -6 -7 -17 3 -11 1 -20 -4 -20 -5 0 -10 -10 -10 -22 -1 -13 -9
-28 -17 -34 -9 -6 -13 -14 -10 -17 3 -3 -5 -18 -19 -33 -14 -15 -23 -33 -20
-40 3 -8 0 -14 -7 -14 -6 0 -9 -4 -5 -9 3 -5 -1 -16 -9 -24 -8 -8 -12 -17 -9
-21 4 -3 1 -6 -6 -6 -8 0 -11 -6 -7 -16 3 -8 2 -12 -4 -9 -9 5 -15 -15 -11
-37 0 -5 -3 -8 -8 -8 -5 0 -13 -9 -16 -20 -4 -11 -11 -17 -17 -14 -7 5 -8 2
-3 -5 4 -8 -2 -25 -15 -43 -13 -17 -17 -27 -10 -23 7 5 5 -5 -5 -23 -10 -17
-22 -29 -27 -26 -5 3 -8 2 -7 -3 4 -22 -2 -44 -10 -38 -5 3 -12 1 -16 -5 -3
-5 -1 -10 5 -10 6 0 2 -13 -10 -30 -12 -16 -18 -35 -14 -42 5 -8 2 -9 -9 -5
-11 4 -14 2 -10 -9 3 -7 0 -14 -7 -14 -6 0 -9 -4 -6 -9 3 -5 -4 -21 -16 -37
-13 -16 -16 -25 -8 -20 8 4 4 -2 -9 -13 -13 -12 -18 -21 -12 -21 7 0 9 -5 6
-10 -4 -6 -11 -8 -16 -4 -6 3 -8 -5 -5 -18 4 -24 4 -24 -29 -9 -18 9 -31 19
-28 24 2 4 -1 7 -7 7 -6 0 -9 4 -5 9 3 5 -2 17 -11 25 -10 11 -11 16 -3 16 7
0 4 7 -7 18 -10 9 -20 24 -22 32 -2 8 -7 16 -12 18 -5 2 -6 10 -3 18 3 7 -2
17 -11 20 -9 3 -14 10 -11 14 3 5 -1 15 -9 23 -8 8 -12 17 -9 21 4 3 -2 6 -12
6 -10 0 -15 3 -12 7 4 3 -1 16 -10 27 -17 20 -17 20 0 7 21 -16 23 -8 2 12 -8
8 -16 21 -17 28 -2 7 -12 22 -23 32 -11 10 -14 16 -5 12 9 -4 8 -1 -3 8 -10 8
-16 19 -15 25 2 6 -6 18 -17 27 -11 9 -14 14 -7 10 7 -4 12 1 12 11 0 10 -3
15 -6 11 -11 -11 -31 17 -26 37 3 12 1 17 -5 13 -6 -4 -14 0 -17 9 -9 22 -8
26 6 18 7 -4 8 -3 4 4 -4 6 -14 8 -23 5 -11 -4 -14 -3 -9 5 9 14 -2 54 -13 48
-4 -3 -13 4 -20 16 -7 11 -8 17 -2 13 16 -9 13 4 -4 22 -8 8 -13 19 -10 23 3
5 -3 15 -15 22 -21 14 -28 33 -7 23 6 -4 1 3 -12 14 -13 12 -17 21 -10 21 7 0
-2 12 -19 26 -24 20 -29 30 -22 40 12 14 -3 29 -19 20 -5 -4 -7 3 -4 14 3 13
-1 22 -12 26 -13 5 -14 9 -3 15 10 7 11 9 0 9 -7 0 -10 5 -7 10 3 6 -1 10 -9
10 -9 0 -16 5 -16 11 0 5 6 7 13 3 6 -4 -1 8 -18 26 -16 18 -25 30 -18 27 7
-5 9 0 6 12 -3 11 -11 22 -19 25 -8 3 -11 12 -7 22 4 11 2 15 -4 11 -6 -4 -14
4 -17 18 -4 15 -14 25 -24 25 -15 0 -15 2 -2 10 9 6 10 10 3 10 -6 0 -14 14
-18 30 -4 19 -13 30 -23 30 -15 0 -15 2 -2 10 10 6 11 10 3 10 -7 0 -13 7 -13
15 0 8 -4 15 -10 15 -5 0 -10 9 -10 20 0 11 -5 20 -11 20 -5 0 -8 4 -5 9 3 5
-1 14 -9 21 -8 7 -15 21 -15 32 0 10 -7 21 -15 24 -8 4 -12 10 -9 15 6 11 -21
41 -30 32 -3 -4 -6 -1 -6 5 0 7 5 12 10 12 6 0 10 4 10 10 0 5 -6 9 -12 7 -7
-1 -12 6 -12 16 1 9 -2 17 -7 17 -5 0 -9 5 -9 11 0 6 -7 17 -15 26 -8 8 -13
19 -10 24 4 5 1 9 -6 9 -7 0 -9 3 -6 7 4 3 -1 12 -11 20 -10 9 -11 11 -2 7 13
-7 13 -5 1 9 -7 9 -16 15 -20 13 -3 -2 -7 8 -8 22 0 14 -9 32 -19 39 -10 7
-14 13 -10 13 5 0 3 7 -4 15 -7 8 -10 22 -6 30 3 10 2 13 -5 10 -6 -4 -13 2
-16 14 -3 11 -9 19 -13 16 -4 -3 -7 3 -6 13 0 10 -5 16 -13 14 -11 -2 -12 0
-2 11 9 12 8 16 -4 21 -9 3 -13 10 -10 16 3 5 1 10 -6 10 -7 0 -10 3 -6 6 3 4
-1 13 -9 21 -8 8 -12 19 -9 24 4 5 1 9 -5 9 -6 0 -8 5 -5 10 3 6 1 10 -4 10
-6 0 -11 7 -11 15 0 8 -4 15 -10 15 -5 0 -10 9 -10 20 0 11 -4 20 -10 20 -5 0
-10 7 -10 16 0 19 -25 45 -35 36 -4 -4 -2 4 5 17 6 13 8 21 3 18 -8 -5 -45 44
-43 58 1 20 -2 25 -16 25 -14 0 -15 2 -3 17 10 11 10 14 2 9 -12 -6 -18 5 -14
27 0 4 -3 7 -8 7 -5 0 -14 14 -20 30 -5 17 -15 30 -22 30 -7 0 -9 3 -6 7 4 3
1 13 -6 21 -10 13 -9 15 3 8 9 -4 8 -1 -2 7 -10 8 -18 21 -18 29 0 8 -9 24
-20 36 -11 12 -20 27 -20 34 -1 18 -26 49 -33 41 -4 -3 -5 4 -2 16 3 17 -1 21
-21 21 -15 0 -23 4 -19 10 4 6 11 7 17 4 7 -5 8 -2 4 5 -5 7 -14 10 -21 7 -8
-3 -15 0 -17 5 -2 5 -13 11 -25 12 -12 0 -19 5 -17 9 6 10 3 10 -63 13 -32 1
-50 -2 -46 -8 4 -6 1 -7 -8 -1 -25 15 -49 15 -49 -2z"/>
</g>
</svg>
